<svg viewBox="575 373.9671 380 119.0657" width="5000" height="1566.653947368421" xmlns="http://www.w3.org/2000/svg" xmlns:xlink="http://www.w3.org/1999/xlink" preserveAspectRatio="none"><defs></defs><style>.a6izo4zJpcolor {fill:#FFFFFF;fill-opacity:1;}.a6izo4zJpstrokeColor-str {stroke:#D9D9D9;stroke-opacity:1;}.aD6z1nYkhcolor {fill:#FFFFFF;fill-opacity:1;}.aD6z1nYkhstrokeColor-str {stroke:#D9D9D9;stroke-opacity:1;}.aR9TavoXYfillColor {fill:#FFFFFF;fill-opacity:0.98;}.aR9TavoXYstrokeColor-str {stroke:#D9D9D9;stroke-opacity:1;}.asr1BtIxlfillColor {fill:#FFFFFF;fill-opacity:0.98;}.asr1BtIxlstrokeColor-str {stroke:#D9D9D9;stroke-opacity:1;}</style><g opacity="1" transform="rotate(0 577.9243 478.9773)">
<svg width="374.1515" height="14.0555" x="577.9243" y="478.9773" version="1.1" preserveAspectRatio="none" viewBox="0.48 -28.6 766.64 28.800000000000004">
  <g transform="matrix(1 0 0 1 0 0)" class="a6izo4zJpcolor"><path id="id-6izo4zJp23" d="M19.20-16.08L14.24-28.20L16.88-28.20L20.88-18.12L24.92-28.20L27.60-28.20L22.64-16.08L28.08-3.24L38.36-28.40L41.40-28.40L29.36 0L26.88 0L20.92-14.04L14.92 0L12.48 0L0.48-28.40L3.48-28.40L13.80-3.24L19.20-16.08Z M56.20-2.48L72.48-2.48L72.48 0L53.40 0L53.40-28.40L72.12-28.40L72.12-25.92L56.20-25.92L56.20-15.68L70.08-15.68L70.08-13.32L56.20-13.32L56.20-2.48Z M124.48 0L124.48-4.16Q120.52 0.20 115.36 0.20L115.36 0.20Q112.48 0.20 110.06-1.04Q107.64-2.28 105.86-4.32Q104.08-6.36 103.08-8.94Q102.08-11.52 102.08-14.24L102.08-14.24Q102.08-17.08 103.06-19.68Q104.04-22.28 105.80-24.26Q107.56-26.24 109.96-27.42Q112.36-28.60 115.20-28.60L115.20-28.60Q117.28-28.60 119-28.14Q120.72-27.68 122.06-26.86Q123.40-26.04 124.38-24.90Q125.36-23.76 126.04-22.40L126.04-22.40L123.88-20.96Q122.48-23.60 120.24-24.84Q118-26.08 115.16-26.08L115.16-26.08Q112.80-26.08 110.90-25.08Q109-24.08 107.66-22.42Q106.32-20.76 105.60-18.62Q104.88-16.48 104.88-14.20L104.88-14.20Q104.88-11.80 105.70-9.64Q106.52-7.48 107.96-5.86Q109.40-4.24 111.34-3.28Q113.28-2.32 115.56-2.32L115.56-2.32Q118-2.32 120.22-3.46Q122.44-4.60 124.48-7.08L124.48-7.08L124.48-11.80L118.16-11.80L118.16-13.96L126.84-13.96L126.84 0L124.48 0Z M143.40 0L140.60 0L140.60-28.40L152.60-28.40Q154.44-28.40 155.98-27.62Q157.52-26.84 158.64-25.58Q159.76-24.32 160.38-22.72Q161.00-21.12 161.00-19.48L161.00-19.48Q161.00-17.92 160.54-16.50Q160.08-15.08 159.26-13.94Q158.44-12.80 157.28-12.02Q156.12-11.24 154.68-10.96L154.68-10.96L161.64 0L158.48 0L151.80-10.48L143.40-10.48L143.40 0ZM143.40-25.92L143.40-12.96L152.68-12.96Q153.92-12.96 154.94-13.50Q155.96-14.04 156.68-14.96Q157.40-15.88 157.80-17.04Q158.20-18.20 158.20-19.48L158.20-19.48Q158.20-20.76 157.74-21.94Q157.28-23.12 156.50-24Q155.72-24.88 154.66-25.40Q153.60-25.92 152.44-25.92L152.44-25.92L143.40-25.92Z M186.16 0.20L186.16 0.20Q183.20 0.20 180.74-1.02Q178.28-2.24 176.52-4.26Q174.76-6.28 173.80-8.88Q172.84-11.48 172.84-14.20L172.84-14.20Q172.84-17.04 173.86-19.64Q174.88-22.24 176.68-24.24Q178.48-26.24 180.92-27.42Q183.36-28.60 186.20-28.60L186.20-28.60Q189.16-28.60 191.62-27.34Q194.08-26.08 195.82-24.04Q197.56-22 198.52-19.42Q199.48-16.84 199.48-14.16L199.48-14.16Q199.48-11.32 198.46-8.72Q197.44-6.12 195.66-4.14Q193.88-2.16 191.44-0.98Q189.00 0.20 186.16 0.20ZM175.64-14.20L175.64-14.20Q175.64-11.88 176.40-9.74Q177.16-7.60 178.56-5.94Q179.96-4.28 181.88-3.30Q183.80-2.32 186.16-2.32L186.16-2.32Q188.56-2.32 190.52-3.36Q192.48-4.40 193.84-6.08Q195.20-7.76 195.94-9.88Q196.68-12 196.68-14.20L196.68-14.20Q196.68-16.52 195.90-18.66Q195.12-20.80 193.72-22.44Q192.32-24.08 190.40-25.06Q188.48-26.04 186.16-26.04L186.16-26.04Q183.76-26.04 181.80-25.02Q179.84-24 178.48-22.32Q177.12-20.64 176.38-18.52Q175.64-16.40 175.64-14.20Z M227.36-16.08L222.40-28.20L225.04-28.20L229.04-18.12L233.08-28.20L235.76-28.20L230.80-16.08L236.24-3.24L246.52-28.40L249.56-28.40L237.52 0L235.04 0L229.08-14.04L223.08 0L220.64 0L208.64-28.40L211.64-28.40L221.96-3.24L227.36-16.08Z M298.04-28.40L300.80-28.40L300.80 0L298.04 0L298.04-13.28L281.20-13.28L281.20 0L278.40 0L278.40-28.40L281.20-28.40L281.20-15.76L298.04-15.76L298.04-28.40Z M327.44-2.32L327.44-2.32Q330.12-2.32 331.90-3.34Q333.68-4.36 334.74-6.02Q335.80-7.68 336.22-9.80Q336.64-11.92 336.64-14.08L336.64-14.08L336.64-28.40L339.44-28.40L339.44-14.08Q339.44-11.20 338.80-8.62Q338.16-6.04 336.74-4.08Q335.32-2.12 333.04-0.96Q330.76 0.20 327.48 0.20L327.48 0.20Q324.12 0.20 321.82-1.02Q319.52-2.24 318.12-4.24Q316.72-6.24 316.12-8.80Q315.52-11.36 315.52-14.08L315.52-14.08L315.52-28.40L318.28-28.40L318.28-14.08Q318.28-11.84 318.72-9.72Q319.16-7.60 320.22-5.96Q321.28-4.32 323.04-3.32Q324.80-2.32 327.44-2.32Z M382.08 0L379.28 0L379.28-23.32L368.92-5.28L367.28-5.28L356.92-23.32L356.92 0L354.12 0L354.12-28.40L357.00-28.40L368.08-8.96L379.24-28.40L382.08-28.40L382.08 0Z M394.12 0L406.00-28.40L408.36-28.40L420.16 0L417.20 0L413.52-8.88L400.76-8.88L397.12 0L394.12 0ZM401.36-11.08L412.88-11.08L407.16-25.12L401.36-11.08Z M453.56 0L435.04-23.20L435.04 0L432.24 0L432.24-28.40L434.40-28.40L453.20-4.76L453.20-28.36L456.00-28.36L456.00 0L453.56 0Z M492.12 0L489.32 0L489.32-28.40L501.08-28.40Q502.92-28.40 504.46-27.62Q506.00-26.84 507.12-25.58Q508.24-24.32 508.88-22.72Q509.52-21.12 509.52-19.48L509.52-19.48Q509.52-17.72 508.92-16.10Q508.32-14.48 507.24-13.24Q506.16-12 504.66-11.24Q503.16-10.48 501.32-10.48L501.32-10.48L492.12-10.48L492.12 0ZM492.12-25.92L492.12-12.96L501.20-12.96Q502.44-12.96 503.46-13.50Q504.48-14.04 505.20-14.94Q505.92-15.84 506.32-17.02Q506.72-18.20 506.72-19.48L506.72-19.48Q506.72-20.80 506.26-21.98Q505.80-23.16 505.02-24.04Q504.24-24.92 503.18-25.42Q502.12-25.92 500.96-25.92L500.96-25.92L492.12-25.92Z M533.64 0.20L533.64 0.20Q530.68 0.20 528.22-1.02Q525.76-2.24 524.00-4.26Q522.24-6.28 521.28-8.88Q520.32-11.48 520.32-14.20L520.32-14.20Q520.32-17.04 521.34-19.64Q522.36-22.24 524.16-24.24Q525.96-26.24 528.40-27.42Q530.84-28.60 533.68-28.60L533.68-28.60Q536.64-28.60 539.10-27.34Q541.56-26.08 543.30-24.04Q545.04-22 546.00-19.42Q546.96-16.84 546.96-14.16L546.96-14.16Q546.96-11.32 545.94-8.72Q544.92-6.12 543.14-4.14Q541.36-2.16 538.92-0.98Q536.48 0.20 533.64 0.20ZM523.12-14.20L523.12-14.20Q523.12-11.88 523.88-9.74Q524.64-7.60 526.04-5.94Q527.44-4.28 529.36-3.30Q531.28-2.32 533.64-2.32L533.64-2.32Q536.04-2.32 538.00-3.36Q539.96-4.40 541.32-6.08Q542.68-7.76 543.42-9.88Q544.16-12 544.16-14.20L544.16-14.20Q544.16-16.52 543.38-18.66Q542.60-20.80 541.20-22.44Q539.80-24.08 537.88-25.06Q535.96-26.04 533.64-26.04L533.64-26.04Q531.24-26.04 529.28-25.02Q527.32-24 525.96-22.32Q524.60-20.64 523.86-18.52Q523.12-16.40 523.12-14.20Z M579.08-28.40L579.08-25.92L568.96-25.92L568.96 0L566.16 0L566.16-25.92L556.04-25.92L556.04-28.40L579.08-28.40Z M594.12-2.48L610.40-2.48L610.40 0L591.32 0L591.32-28.40L610.04-28.40L610.04-25.92L594.12-25.92L594.12-15.68L608.00-15.68L608.00-13.32L594.12-13.32L594.12-2.48Z M645.00 0L626.48-23.20L626.48 0L623.68 0L623.68-28.40L625.84-28.40L644.64-4.76L644.64-28.36L647.44-28.36L647.44 0L645.00 0Z M682.72-28.40L682.72-25.92L672.60-25.92L672.60 0L669.80 0L669.80-25.92L659.68-25.92L659.68-28.40L682.72-28.40Z M697.76 0L694.96 0L694.96-28.40L697.76-28.40L697.76 0Z M709.80 0L721.68-28.40L724.04-28.40L735.84 0L732.88 0L729.20-8.88L716.44-8.88L712.80 0L709.80 0ZM717.04-11.08L728.56-11.08L722.84-25.12L717.04-11.08Z M767.12 0L747.92 0L747.92-28.40L750.72-28.40L750.72-2.48L767.12-2.48L767.12 0Z"/></g>
</svg>
</g><g opacity="1" transform="rotate(0 737.0571 373.9671)">
<svg width="55.8859" height="43.5036" x="737.0571" y="373.9671" version="1.1" preserveAspectRatio="none" viewBox="8.320001602172852 14.279999732971191 46.849998474121094 36.470001220703125">
  <g transform="matrix(1 0 0 1 0 0)" style="fill:#FFFFFF;fill-opacity:0.98;"><title>35, idea, smart, insight, concept, brain</title><g><path d="M48.18,41.88,43.52,31H55.17Zm-30.13.82a.78.78,0,0,0,0,.3H13.93l7.22-10.23Zm-5.73-.89-4-12,13.55-1.59Zm5.49-25,4.66,9.31L9.27,27.73ZM42,27.63,35.84,14.57,46.6,17.64ZM40.28,28.7,25.74,26.28,33.82,15ZM24.15,25.07l-4.62-9.25,12.33-1.54Zm16.63,5.74L29.48,42.1,25.41,28.25ZM42,32.45,46.48,43H31.41ZM43.56,29l4.61-10,6.92,10ZM19.87,43.44A.5.5,0,0,0,20,43.3l4-12.86,4,13.7v6.61Z"></path></g></g>
</svg>
</g><g opacity="1" transform="rotate(0 575 394.6354)">
<svg width="157.4966" height="2.1669" x="575" y="394.6354" version="1.1" preserveAspectRatio="none" viewBox="0 0 157.4966 2.1669">
  <defs><rect x="0" y="0" width="157.4966" height="2.1669" rx="0px" ry="0px" id="id-sr1BtIxl"></rect></defs><use class="asr1BtIxlfillColor asr1BtIxlstrokeColor-str" style="stroke-width:0;" xlink:href="#id-sr1BtIxl"></use>
</svg>
</g><g opacity="1" transform="rotate(0 797.5034 394.6354)">
<svg width="157.4966" height="2.1669" x="797.5034" y="394.6354" version="1.1" preserveAspectRatio="none" viewBox="0 0 157.4966 2.1669">
  <defs><rect x="0" y="0" width="157.4966" height="2.1669" rx="0px" ry="0px" id="id-R9TavoXY"></rect></defs><use class="aR9TavoXYfillColor aR9TavoXYstrokeColor-str" style="stroke-width:0;" xlink:href="#id-R9TavoXY"></use>
</svg>
</g><g opacity="1" transform="rotate(0 575 422.805)">
<svg width="380" height="30.3365" x="575" y="422.805" version="1.1" preserveAspectRatio="none" viewBox="2.32 -28.56 364.76 29.12">
  <g transform="matrix(1 0 0 1 0 0)" class="aD6z1nYkhcolor"><path id="id-D6z1nYkh15" d="M2.44-1.64L2.44-1.64Q2.32-2.20 2.32-3.80Q2.32-5.40 2.92-7.20L2.92-7.20L3.28-7.20Q3.24-6.76 3.24-6.32L3.24-6.32Q3.24-3.88 4.72-2.26Q6.20-0.64 8.64-0.64L8.64-0.64Q11.16-0.64 12.78-2.16Q14.40-3.68 14.40-5.98Q14.40-8.28 12.84-9.72L12.84-9.72L5.16-16.84Q3-18.84 3-21.68Q3-24.52 4.90-26.54Q6.80-28.56 10.04-28.56L10.04-28.56Q11.56-28.56 13.48-28.16L13.48-28.16L15.04-28.16L15.04-23.24L14.68-23.24Q14.68-25.12 13.38-26.24Q12.08-27.36 10.04-27.36Q8-27.36 6.62-26Q5.24-24.64 5.24-22.60Q5.24-20.56 6.84-19.08L6.84-19.08L14.72-11.80Q16.72-9.96 16.72-6.76Q16.72-3.56 14.68-1.50Q12.64 0.56 9.24 0.56L9.24 0.56Q7.48 0.56 5.50 0.02Q3.52-0.52 2.44-1.64Z M47-0.40L47-0.40L47.32-0.40L47.32 0L39.12 0L39.12-0.40L39.44-0.40Q40.20-0.40 40.60-0.92Q41-1.44 41-1.90Q41-2.36 40.84-2.80L40.84-2.80L38.64-8.12L28.52-8.12L26.32-2.92Q26.12-2.40 26.12-1.94Q26.12-1.48 26.52-0.94Q26.92-0.40 27.72-0.40L27.72-0.40L28.04-0.40L28.04 0L20.40 0L20.40-0.40L20.72-0.40Q21.56-0.40 22.42-0.98Q23.28-1.56 23.84-2.72L23.84-2.72Q32.60-21.44 32.96-22.32L32.96-22.32Q33.64-24 33.68-24.56L33.68-24.56L34.04-24.56L43.92-2.72Q45.08-0.40 47-0.40ZM33.68-20.28L29.04-9.32L38.16-9.32L33.68-20.28Z M66.44-22.84L59.20-22.84L59.20-2.52Q59.24-1.28 60.40-0.68L60.40-0.68Q60.92-0.40 61.56-0.40L61.56-0.40L62.00-0.40L62.00 0L53.76 0L53.76-0.40L54.24-0.40Q55.20-0.40 55.88-1.04Q56.56-1.68 56.60-2.56L56.60-2.56L56.60-22.84L49.36-22.84Q48.44-22.84 47.90-22.24Q47.36-21.64 47.36-20.80L47.36-20.80L47.36-20.16L46.92-20.16L46.92-24.68Q47.72-24.36 49.18-24.20Q50.64-24.04 51.36-24.04L51.36-24.04L64.40-24.04Q67.28-24.04 68.88-24.68L68.88-24.68L68.88-20.16L68.44-20.16L68.44-20.80Q68.44-21.64 67.88-22.24Q67.32-22.84 66.44-22.84L66.44-22.84Z M78.96-22.98Q82.04-24.56 85.74-24.56Q89.44-24.56 92.52-22.98Q95.60-21.40 97.42-18.52Q99.24-15.64 99.24-12Q99.24-8.36 97.42-5.48Q95.60-2.60 92.52-1.02Q89.44 0.56 86.20 0.56Q82.96 0.56 80.48-0.36Q78.00-1.28 76.18-2.92Q74.36-4.56 73.30-6.92Q72.24-9.28 72.24-12.46Q72.24-15.64 74.06-18.52Q75.88-21.40 78.96-22.98ZM78.22-3.82Q81.24-0.64 85.72-0.64Q90.20-0.64 93.24-3.82Q96.28-7 96.28-12Q96.28-17 93.24-20.18Q90.20-23.36 85.72-23.36Q81.24-23.36 78.22-20.18Q75.20-17 75.20-12Q75.20-7 78.22-3.82Z M112.28-22.76L112.28-22.76L110.16-22.76L110.16-2.56Q110.20-1.32 111.28-0.68L111.28-0.68Q111.80-0.40 112.44-0.40L112.44-0.40L112.96-0.40L113.00 0L104.80 0L104.80-0.40L105.36-0.40Q106.28-0.40 106.94-1.02Q107.60-1.64 107.60-2.52L107.60-2.52L107.60-21.52Q107.60-22.40 106.94-23Q106.28-23.60 105.36-23.60L105.36-23.60L104.80-23.60L104.80-24L114.84-24Q118.60-24 120.78-22.28Q122.96-20.56 122.96-17.76Q122.96-14.96 121.20-13.08Q119.44-11.20 116.72-10.92L116.72-10.92Q118.00-10.36 119.80-7.80L119.80-7.80Q119.76-7.80 121.18-6.04Q122.60-4.28 123.46-3.30Q124.32-2.32 124.88-1.80L124.88-1.80Q126.36-0.40 128.28-0.40L128.28-0.40L128.28 0L127.04 0Q123.88 0 122.08-1.24L122.08-1.24Q120.72-2.16 119.60-3.52L119.60-3.52Q119.36-3.84 117.58-6.34Q115.80-8.84 115.68-9L115.68-9Q113.52-11.68 111.64-11.68L111.64-11.68L111.64-12.08Q116.32-12.08 117.28-12.56L117.28-12.56Q118.60-13.24 119.08-14L119.08-14Q120.08-15.60 120.08-17.52L120.08-17.52Q120.08-19.96 118.64-21.28Q117.20-22.60 114.76-22.72L114.76-22.72Q113.68-22.76 112.28-22.76Z M131.88-0.40L132.44-0.40Q133.52-0.40 134.32-1.04Q135.12-1.68 135.12-2.56L135.12-2.56L135.12-21.44Q135.12-22.32 134.32-22.96Q133.52-23.60 132.40-23.60L132.40-23.60L131.88-23.60L131.88-24L140.92-24L140.92-23.60L140.40-23.60Q139.32-23.60 138.54-23Q137.76-22.40 137.68-21.52L137.68-21.52L137.68-2.52Q137.72-1.64 138.52-1.02Q139.32-0.40 140.40-0.40L140.40-0.40L140.92-0.40L140.96 0L131.88 0L131.88-0.40Z M185.72-0.40L185.72-0.40L186.04-0.40L186.04 0L177.04 0L177.04-0.40L177.40-0.40Q178.24-0.40 178.66-0.94Q179.08-1.48 179.08-1.96Q179.08-2.44 178.92-2.92L178.92-2.92L176.36-9.72L165.56-9.72L162.88-2.88Q162.72-2.40 162.72-1.94Q162.72-1.48 163.14-0.94Q163.56-0.40 164.40-0.40L164.40-0.40L164.76-0.40L164.76 0L156.72 0L156.72-0.40L157.08-0.40Q158.08-0.40 159.04-1.04Q160-1.68 160.60-2.92L160.60-2.92L169.64-24.44Q171.12-27.68 171.12-28.56L171.12-28.56L171.48-28.56L182.20-2.92Q182.76-1.68 183.72-1.04Q184.68-0.40 185.72-0.40ZM171.08-23.76L166.04-10.92L175.88-10.92L171.08-23.76Z M216-12L216-12Q216-6.44 212.54-3.22Q209.08 0 203.16 0L203.16 0L189.80 0L189.80-0.40L190.32-0.40Q191.28-0.40 191.92-1.04Q192.56-1.68 192.60-2.56L192.60-2.56L192.60-21.44Q192.56-22.40 191.90-23Q191.24-23.60 190.28-23.60L190.28-23.60L189.80-23.60L189.80-24L203.16-24Q207.08-24 209.98-22.56Q212.88-21.12 214.44-18.40Q216-15.68 216-12ZM203.16-22.80L195.20-22.80L195.20-1.20L203.16-1.20Q207.76-1.20 210.44-4.10Q213.12-7 213.12-12L213.12-12Q213.12-17 210.44-19.90Q207.76-22.80 203.16-22.80L203.16-22.80Z M245.92-24L245.92-23.60L245.60-23.60Q244.72-23.60 243.88-23.02Q243.04-22.44 242.44-21.28L242.44-21.28Q233.72-2.56 233.36-1.68L233.36-1.68Q232.68 0 232.64 0.56L232.64 0.56L232.28 0.56L222.40-21.24Q221.24-23.60 219.32-23.60L219.32-23.60L219-23.60L219-24L227.20-24L227.20-23.60L226.88-23.60Q226.12-23.60 225.74-23.06Q225.36-22.52 225.36-22.08Q225.36-21.64 225.48-21.16L225.48-21.16L232.64-3.72L240-21.08Q240.20-21.60 240.20-22.06Q240.20-22.52 239.80-23.06Q239.40-23.60 238.60-23.60L238.60-23.60L238.32-23.60L238.32-24L245.92-24Z M249.92-0.40L250.48-0.40Q251.56-0.40 252.36-1.04Q253.16-1.68 253.16-2.56L253.16-2.56L253.16-21.44Q253.16-22.32 252.36-22.96Q251.56-23.60 250.44-23.60L250.44-23.60L249.92-23.60L249.92-24L258.96-24L258.96-23.60L258.44-23.60Q257.36-23.60 256.58-23Q255.80-22.40 255.72-21.52L255.72-21.52L255.72-2.52Q255.76-1.64 256.56-1.02Q257.36-0.40 258.44-0.40L258.44-0.40L258.96-0.40L259 0L249.92 0L249.92-0.40Z M265.48-1.32L265.48-1.32Q265.36-1.80 265.36-3.28Q265.36-4.76 265.88-6.28L265.88-6.28L266.36-6.28Q266.32-5.92 266.32-5.56L266.32-5.56Q266.32-3.40 267.74-2.02Q269.16-0.64 271.68-0.64L271.68-0.64Q274.32-0.64 275.80-1.86Q277.28-3.08 277.28-5.02Q277.28-6.96 275.84-8.24L275.84-8.24L267.84-14.40Q265.92-16.04 265.92-18.80L265.92-18.80Q265.92-20.36 266.78-21.68Q267.64-23 269.18-23.78Q270.72-24.56 272.80-24.56Q274.88-24.56 276.48-24.20L276.48-24.20L277.80-24.20L277.88-19.84L277.44-19.84Q277.44-21.52 276.28-22.44Q275.12-23.36 272.96-23.36Q270.80-23.36 269.40-22.26Q268-21.16 268-19.42Q268-17.68 269.56-16.40L269.56-16.40L277.64-10.16Q279.48-8.64 279.48-5.92Q279.48-3.20 277.42-1.32Q275.36 0.56 272.40 0.56L272.40 0.56Q270.44 0.56 268.48 0.08Q266.52-0.40 265.48-1.32Z M292.36-22.98Q295.44-24.56 299.14-24.56Q302.84-24.56 305.92-22.98Q309.00-21.40 310.82-18.52Q312.64-15.64 312.64-12Q312.64-8.36 310.82-5.48Q309.00-2.60 305.92-1.02Q302.84 0.56 299.60 0.56Q296.36 0.56 293.88-0.36Q291.40-1.28 289.58-2.92Q287.76-4.56 286.70-6.92Q285.64-9.28 285.64-12.46Q285.64-15.64 287.46-18.52Q289.28-21.40 292.36-22.98ZM291.62-3.82Q294.64-0.64 299.12-0.64Q303.60-0.64 306.64-3.82Q309.68-7 309.68-12Q309.68-17 306.64-20.18Q303.60-23.36 299.12-23.36Q294.64-23.36 291.62-20.18Q288.60-17 288.60-12Q288.60-7 291.62-3.82Z M325.68-22.76L325.68-22.76L323.56-22.76L323.56-2.56Q323.60-1.32 324.68-0.68L324.68-0.68Q325.20-0.40 325.84-0.40L325.84-0.40L326.36-0.40L326.40 0L318.20 0L318.20-0.40L318.76-0.40Q319.68-0.40 320.34-1.02Q321-1.64 321-2.52L321-2.52L321-21.52Q321-22.40 320.34-23Q319.68-23.60 318.76-23.60L318.76-23.60L318.20-23.60L318.20-24L328.24-24Q332-24 334.18-22.28Q336.36-20.56 336.36-17.76Q336.36-14.96 334.60-13.08Q332.84-11.20 330.12-10.92L330.12-10.92Q331.40-10.36 333.20-7.80L333.20-7.80Q333.16-7.80 334.58-6.04Q336-4.28 336.86-3.30Q337.72-2.32 338.28-1.80L338.28-1.80Q339.76-0.40 341.68-0.40L341.68-0.40L341.68 0L340.44 0Q337.28 0 335.48-1.24L335.48-1.24Q334.12-2.16 333-3.52L333-3.52Q332.76-3.84 330.98-6.34Q329.20-8.84 329.08-9L329.08-9Q326.92-11.68 325.04-11.68L325.04-11.68L325.04-12.08Q329.72-12.08 330.68-12.56L330.68-12.56Q332-13.24 332.48-14L332.48-14Q333.48-15.60 333.48-17.52L333.48-17.52Q333.48-19.96 332.04-21.28Q330.60-22.60 328.16-22.72L328.16-22.72Q327.08-22.76 325.68-22.76Z M367.08-24L367.08-23.60L366.60-23.60Q365.52-23.60 364.54-23.02Q363.56-22.44 362.92-21.56L362.92-21.56L355.24-9.92L355.24-2.56Q355.24-1.68 355.92-1.04Q356.60-0.40 357.56-0.40L357.56-0.40L358.04-0.40L358.04 0L349.84 0L349.84-0.40L350.32-0.40Q351.28-0.40 351.96-1.04Q352.64-1.68 352.64-2.56L352.64-2.56L352.64-9.96L345.24-21.60Q343.88-23.60 341.56-23.60L341.56-23.60L341.08-23.60L341.08-24L350.36-24L350.36-23.60L349.88-23.60Q349.12-23.60 348.78-23.12Q348.44-22.64 348.44-22.30Q348.44-21.96 348.52-21.68L348.52-21.68L354.36-11.32L360.56-21.64Q360.68-21.96 360.68-22.30Q360.68-22.64 360.34-23.12Q360-23.60 359.20-23.60L359.20-23.60L358.72-23.60L358.72-24L367.08-24Z"/></g>
</svg>
</g></svg>